<?xml version="1.0" encoding="utf-8"?>
<!-- Generator: Adobe Illustrator 26.3.1, SVG Export Plug-In . SVG Version: 6.00 Build 0)  -->
<svg version="1.1" id="Capa_1" xmlns="http://www.w3.org/2000/svg" xmlns:xlink="http://www.w3.org/1999/xlink" x="0px" y="0px"
	 viewBox="0 0 135 40" style="enable-background:new 0 0 135 40;" xml:space="preserve">
<style type="text/css">
	.st0{fill:#A6A6A6;}
	.st1{fill:#FFFFFF;}
	.st2{fill:#FFFFFF;stroke:#FFFFFF;stroke-width:0.2;stroke-miterlimit:10;}
</style>
<g>
	<g>
		<g>
			<path d="M130,40H5c-2.8,0-5-2.2-5-5V5c0-2.8,2.2-5,5-5h125c2.8,0,5,2.2,5,5v30C135,37.8,132.8,40,130,40z"/>
		</g>
		<g>
			<g>
				<path class="st0" d="M130,0.8c2.3,0,4.2,1.9,4.2,4.2v30c0,2.3-1.9,4.2-4.2,4.2H5c-2.3,0-4.2-1.9-4.2-4.2V5
					c0-2.3,1.9-4.2,4.2-4.2H130 M130,0H5C2.2,0,0,2.3,0,5v30c0,2.8,2.2,5,5,5h125c2.8,0,5-2.2,5-5V5C135,2.3,132.8,0,130,0L130,0z"
					/>
			</g>
		</g>
	</g>
	<g id="XMLID_22_">
		<g id="XMLID_23_">
			<path id="XMLID_25_" class="st1" d="M27.5,20.2c0-2.8,2.3-4.1,2.4-4.2c-1.3-1.9-3.3-2.1-4-2.2c-1.7-0.2-3.3,1-4.2,1
				c-0.9,0-2.2-1-3.6-1c-1.8,0-3.5,1.1-4.5,2.7c-1.9,3.3-0.5,8.3,1.4,11c0.9,1.3,2,2.8,3.4,2.8c1.4-0.1,1.9-0.9,3.6-0.9
				c1.7,0,2.1,0.9,3.6,0.9c1.5,0,2.4-1.3,3.3-2.7c1.1-1.5,1.5-3,1.5-3.1C30.3,24.6,27.5,23.5,27.5,20.2z"/>
			<path id="XMLID_24_" class="st1" d="M24.7,12.1c0.7-0.9,1.3-2.2,1.1-3.5c-1.1,0-2.4,0.7-3.2,1.7c-0.7,0.8-1.3,2.1-1.1,3.4
				C22.7,13.7,23.9,13,24.7,12.1z"/>
		</g>
	</g>
	<g>
		<path class="st1" d="M48.9,27h-4.7L43,30.4h-2L45.5,18h2.1l4.5,12.4h-2L48.9,27z M44.7,25.5h3.8L46.6,20h-0.1L44.7,25.5z"/>
		<path class="st1" d="M61.8,25.9c0,2.8-1.5,4.6-3.8,4.6c-1.3,0-2.3-0.6-2.8-1.6h0v4.5h-1.9v-12H55v1.5h0c0.5-1,1.6-1.6,2.9-1.6
			C60.3,21.2,61.8,23,61.8,25.9z M59.9,25.9c0-1.8-0.9-3-2.4-3c-1.4,0-2.4,1.2-2.4,3c0,1.8,1,3,2.4,3C58.9,28.9,59.9,27.7,59.9,25.9
			z"/>
		<path class="st1" d="M71.7,25.9c0,2.8-1.5,4.6-3.8,4.6c-1.3,0-2.3-0.6-2.8-1.6h0v4.5h-1.9v-12H65v1.5h0c0.5-1,1.6-1.6,2.9-1.6
			C70.2,21.2,71.7,23,71.7,25.9z M69.8,25.9c0-1.8-0.9-3-2.4-3c-1.4,0-2.4,1.2-2.4,3c0,1.8,1,3,2.4,3C68.9,28.9,69.8,27.7,69.8,25.9
			z"/>
		<path class="st1" d="M78.3,26.9c0.1,1.2,1.3,2,3,2c1.6,0,2.7-0.8,2.7-1.9c0-1-0.7-1.5-2.3-1.9l-1.6-0.4c-2.3-0.6-3.3-1.6-3.3-3.3
			c0-2.1,1.9-3.6,4.5-3.6c2.6,0,4.4,1.5,4.5,3.6h-1.9c-0.1-1.2-1.1-2-2.6-2s-2.5,0.8-2.5,1.9c0,0.9,0.7,1.4,2.3,1.8l1.4,0.3
			C84.9,24,86,25,86,26.8c0,2.3-1.9,3.8-4.8,3.8c-2.8,0-4.6-1.4-4.7-3.7H78.3z"/>
		<path class="st1" d="M90,19.2v2.1h1.7v1.5H90v5c0,0.8,0.3,1.1,1.1,1.1c0.2,0,0.5,0,0.6,0v1.5c-0.2,0.1-0.6,0.1-1,0.1
			c-1.8,0-2.5-0.7-2.5-2.4v-5.2h-1.3v-1.5h1.3v-2.1H90z"/>
		<path class="st1" d="M92.7,25.9c0-2.8,1.7-4.6,4.3-4.6c2.6,0,4.3,1.8,4.3,4.6c0,2.9-1.7,4.6-4.3,4.6
			C94.3,30.5,92.7,28.7,92.7,25.9z M99.4,25.9c0-2-0.9-3.1-2.4-3.1s-2.4,1.2-2.4,3.1c0,2,0.9,3.1,2.4,3.1S99.4,27.8,99.4,25.9z"/>
		<path class="st1" d="M102.8,21.3h1.8v1.5h0c0.3-1,1.1-1.6,2.2-1.6c0.3,0,0.5,0,0.6,0.1V23c-0.1-0.1-0.5-0.1-0.8-0.1
			c-1.2,0-1.9,0.8-1.9,2.1v5.4h-1.9V21.3z"/>
		<path class="st1" d="M116,27.7c-0.2,1.6-1.9,2.8-3.9,2.8c-2.6,0-4.3-1.8-4.3-4.6c0-2.8,1.6-4.7,4.2-4.7c2.5,0,4.1,1.7,4.1,4.5v0.6
			h-6.4v0.1c0,1.5,1,2.6,2.4,2.6c1,0,1.8-0.5,2.1-1.3H116z M109.7,25h4.5c0-1.4-0.9-2.3-2.2-2.3C110.7,22.7,109.8,23.6,109.7,25z"/>
	</g>
	<g>
		<path class="st2" d="M41.7,8.4c0.5-0.1,1.1-0.1,1.7-0.1c1.2,0,2,0.3,2.5,0.8c0.6,0.5,0.9,1.2,0.9,2.2c0,1-0.3,1.9-0.9,2.4
			c-0.6,0.6-1.6,0.9-2.8,0.9c-0.6,0-1.1,0-1.5-0.1V8.4z M42.6,14c0.2,0,0.5,0,0.8,0c1.7,0,2.7-1,2.7-2.7c0-1.5-0.8-2.4-2.5-2.4
			c-0.4,0-0.7,0-0.9,0.1V14z"/>
		<path class="st2" d="M48.9,8.8c0,0.3-0.2,0.5-0.5,0.5c-0.3,0-0.5-0.2-0.5-0.5c0-0.3,0.2-0.5,0.5-0.5C48.7,8.3,48.9,8.5,48.9,8.8z
			 M48,14.6v-4.5h0.8v4.5H48z"/>
		<path class="st2" d="M50,13.8c0.2,0.2,0.7,0.3,1.1,0.3c0.6,0,0.9-0.3,0.9-0.7c0-0.4-0.2-0.6-0.8-0.8c-0.8-0.3-1.2-0.7-1.2-1.3
			c0-0.7,0.6-1.3,1.6-1.3c0.5,0,0.9,0.1,1.1,0.3l-0.2,0.6c-0.2-0.1-0.5-0.3-0.9-0.3c-0.5,0-0.8,0.3-0.8,0.6c0,0.4,0.3,0.5,0.9,0.8
			c0.8,0.3,1.2,0.7,1.2,1.4c0,0.8-0.6,1.3-1.7,1.3c-0.5,0-0.9-0.1-1.3-0.3L50,13.8z"/>
		<path class="st2" d="M53.8,11.6c0-0.6,0-1,0-1.5h0.7l0,0.8h0c0.3-0.5,0.9-0.9,1.6-0.9c1.1,0,1.9,0.9,1.9,2.3c0,1.6-1,2.4-2,2.4
			c-0.6,0-1.1-0.3-1.4-0.7h0v2.4h-0.8V11.6z M54.6,12.8c0,0.1,0,0.2,0,0.3c0.1,0.6,0.6,1,1.2,1c0.9,0,1.4-0.7,1.4-1.7
			c0-0.9-0.5-1.7-1.3-1.7c-0.6,0-1.1,0.4-1.2,1c0,0.1-0.1,0.2-0.1,0.3V12.8z"/>
		<path class="st2" d="M63.3,12.3c0,1.7-1.2,2.4-2.2,2.4c-1.2,0-2.2-0.9-2.2-2.3c0-1.5,1-2.4,2.2-2.4C62.4,10,63.3,10.9,63.3,12.3z
			 M59.7,12.4c0,1,0.6,1.7,1.4,1.7c0.8,0,1.4-0.7,1.4-1.7c0-0.8-0.4-1.7-1.3-1.7C60.1,10.6,59.7,11.5,59.7,12.4z"/>
		<path class="st2" d="M64.4,11.3c0-0.5,0-0.8,0-1.2H65l0,0.7h0c0.2-0.4,0.7-0.8,1.5-0.8c0.6,0,1.6,0.4,1.6,1.9v2.7h-0.8V12
			c0-0.7-0.3-1.3-1-1.3c-0.5,0-1,0.4-1.1,0.8c0,0.1-0.1,0.2-0.1,0.4v2.7h-0.8V11.3z"/>
		<path class="st2" d="M70.4,8.8c0,0.3-0.2,0.5-0.5,0.5c-0.3,0-0.5-0.2-0.5-0.5c0-0.3,0.2-0.5,0.5-0.5C70.2,8.3,70.4,8.5,70.4,8.8z
			 M69.5,14.6v-4.5h0.8v4.5H69.5z"/>
		<path class="st2" d="M71.7,14.6c0-0.3,0-0.8,0-1.2V8h0.8v2.8h0c0.3-0.5,0.8-0.8,1.5-0.8c1.1,0,1.9,0.9,1.9,2.3c0,1.6-1,2.4-2,2.4
			c-0.7,0-1.2-0.3-1.5-0.8h0l0,0.7H71.7z M72.5,12.8c0,0.1,0,0.2,0,0.3c0.2,0.6,0.6,1,1.2,1c0.9,0,1.4-0.7,1.4-1.7
			c0-0.9-0.5-1.7-1.3-1.7c-0.6,0-1.1,0.4-1.2,1c0,0.1,0,0.2,0,0.3V12.8z"/>
		<path class="st2" d="M77.1,8h0.8v6.6h-0.8V8z"/>
		<path class="st2" d="M79.8,12.5c0,1.1,0.7,1.6,1.5,1.6c0.6,0,0.9-0.1,1.2-0.2l0.1,0.6c-0.3,0.1-0.8,0.3-1.5,0.3
			c-1.4,0-2.2-0.9-2.2-2.3c0-1.4,0.8-2.4,2.1-2.4c1.5,0,1.9,1.3,1.9,2.1c0,0.2,0,0.3,0,0.4H79.8z M82.2,11.9c0-0.5-0.2-1.3-1.1-1.3
			c-0.8,0-1.2,0.8-1.3,1.3H82.2z"/>
		<path class="st2" d="M86.4,12.5c0,1.1,0.7,1.6,1.5,1.6c0.6,0,0.9-0.1,1.2-0.2l0.1,0.6c-0.3,0.1-0.8,0.3-1.5,0.3
			c-1.4,0-2.2-0.9-2.2-2.3c0-1.4,0.8-2.4,2.1-2.4c1.5,0,1.9,1.3,1.9,2.1c0,0.2,0,0.3,0,0.4H86.4z M88.8,11.9c0-0.5-0.2-1.3-1.1-1.3
			c-0.8,0-1.2,0.8-1.3,1.3H88.8z"/>
		<path class="st2" d="M90.6,11.3c0-0.5,0-0.8,0-1.2h0.7l0,0.7h0c0.2-0.4,0.7-0.8,1.5-0.8c0.6,0,1.6,0.4,1.6,1.9v2.7h-0.8V12
			c0-0.7-0.3-1.3-1-1.3c-0.5,0-1,0.4-1.1,0.8c0,0.1-0.1,0.2-0.1,0.4v2.7h-0.8V11.3z"/>
	</g>
</g>
</svg>
