<?xml version="1.0" encoding="utf-8"?>
<!-- Generator: Adobe Illustrator 26.3.1, SVG Export Plug-In . SVG Version: 6.00 Build 0)  -->
<svg version="1.1" id="Capa_1" xmlns="http://www.w3.org/2000/svg" xmlns:xlink="http://www.w3.org/1999/xlink" x="0px" y="0px"
	 viewBox="0 0 135 40" style="enable-background:new 0 0 135 40;" xml:space="preserve">
<style type="text/css">
	.st0{fill:#A6A6A6;}
	.st1{fill:#FFFFFF;}
	.st2{fill:url(#SVGID_1_);}
	.st3{fill:url(#SVGID_00000108269866529978751700000014573348706199264938_);}
	.st4{fill:url(#SVGID_00000020361966754556654870000001968786124329663153_);}
	.st5{fill:url(#SVGID_00000022533296889914637340000000175628730916956843_);}
	.st6{opacity:0.2;enable-background:new    ;}
	.st7{opacity:0.12;enable-background:new    ;}
	.st8{opacity:0.25;fill:#FFFFFF;enable-background:new    ;}
	.st9{fill:#FFFFFF;stroke:#FFFFFF;stroke-width:0.2;stroke-miterlimit:10;}
</style>
<g>
	<g>
		<g>
			<path d="M130,40H5c-2.8,0-5-2.2-5-5V5c0-2.7,2.2-5,5-5h125c2.8,0,5,2.2,5,5v30C135,37.7,132.8,40,130,40z"/>
		</g>
		<g>
			<g>
				<path class="st0" d="M130,0.8c2.3,0,4.2,1.9,4.2,4.2v30c0,2.3-1.9,4.2-4.2,4.2H5c-2.3,0-4.2-1.9-4.2-4.2V5
					c0-2.3,1.9-4.2,4.2-4.2H130 M130,0H5C2.2,0,0,2.3,0,5v30c0,2.8,2.2,5,5,5h125c2.8,0,5-2.2,5-5V5C135,2.3,132.8,0,130,0L130,0z"
					/>
			</g>
		</g>
	</g>
	<path class="st1" d="M67.2,22.5c-2.3,0-4.1,1.7-4.1,4.1c0,2.4,1.8,4.1,4.1,4.1c2.3,0,4.1-1.7,4.1-4.1
		C71.3,24.2,69.4,22.5,67.2,22.5z M67.2,29c-1.2,0-2.3-1-2.3-2.5c0-1.5,1.1-2.5,2.3-2.5s2.3,1,2.3,2.5C69.5,28,68.4,29,67.2,29z
		 M58.2,22.5c-2.3,0-4.1,1.7-4.1,4.1c0,2.4,1.8,4.1,4.1,4.1c2.3,0,4.1-1.7,4.1-4.1C62.3,24.2,60.4,22.5,58.2,22.5z M58.2,29
		c-1.2,0-2.3-1-2.3-2.5c0-1.5,1.1-2.5,2.3-2.5c1.2,0,2.3,1,2.3,2.5C60.5,28,59.4,29,58.2,29z M47.5,23.7v1.7h4.2
		c-0.1,1-0.5,1.7-0.9,2.2c-0.6,0.6-1.6,1.3-3.2,1.3c-2.6,0-4.6-2.1-4.6-4.6s2-4.6,4.6-4.6c1.4,0,2.4,0.5,3.1,1.2l1.2-1.2
		c-1-1-2.4-1.8-4.4-1.8c-3.5,0-6.5,2.9-6.5,6.4c0,3.5,3,6.4,6.5,6.4c1.9,0,3.3-0.6,4.4-1.8c1.1-1.1,1.5-2.8,1.5-4.1
		c0-0.4,0-0.8-0.1-1.1H47.5z M91.2,25.1c-0.3-0.9-1.4-2.6-3.5-2.6c-2.1,0-3.9,1.7-3.9,4.1c0,2.3,1.7,4.1,4.1,4.1
		c1.9,0,3-1.1,3.4-1.8l-1.4-0.9c-0.5,0.7-1.1,1.1-2,1.1c-0.9,0-1.6-0.4-2-1.2l5.5-2.3L91.2,25.1z M85.6,26.4c0-1.6,1.2-2.4,2.1-2.4
		c0.7,0,1.3,0.4,1.5,0.9L85.6,26.4z M81.1,30.4h1.8v-12h-1.8V30.4z M78.2,23.4L78.2,23.4c-0.5-0.5-1.2-0.9-2.2-0.9
		c-2,0-3.9,1.8-3.9,4.1c0,2.3,1.9,4.1,3.9,4.1c1,0,1.8-0.4,2.2-0.9h0.1v0.6c0,1.6-0.8,2.4-2.2,2.4c-1.1,0-1.8-0.8-2.1-1.5l-1.6,0.7
		c0.5,1.1,1.6,2.4,3.6,2.4c2.1,0,3.9-1.2,3.9-4.3v-7.4h-1.7V23.4z M76.1,29c-1.2,0-2.3-1-2.3-2.5c0-1.4,1-2.5,2.3-2.5
		c1.2,0,2.2,1.1,2.2,2.5C78.3,28,77.3,29,76.1,29z M99.6,18.4h-4.3v12h1.8v-4.6h2.5c2,0,4-1.4,4-3.7S101.6,18.4,99.6,18.4z
		 M99.7,24.2h-2.6V20h2.6c1.3,0,2.1,1.1,2.1,2.1C101.8,23,101,24.2,99.7,24.2z M110.8,22.4c-1.3,0-2.7,0.6-3.2,1.8l1.6,0.7
		c0.3-0.7,1-0.9,1.6-0.9c0.9,0,1.9,0.6,1.9,1.6v0.1c-0.3-0.2-1-0.5-1.9-0.5c-1.7,0-3.5,0.9-3.5,2.7c0,1.6,1.4,2.7,3,2.7
		c1.2,0,1.9-0.5,2.3-1.2h0.1v0.9h1.7v-4.6C114.4,23.6,112.8,22.4,110.8,22.4z M110.6,29c-0.6,0-1.4-0.3-1.4-1c0-0.9,1-1.3,1.9-1.3
		c0.8,0,1.2,0.2,1.6,0.4C112.6,28.3,111.6,29,110.6,29z M120.8,22.7l-2.1,5.2h-0.1l-2.1-5.2h-1.9l3.2,7.3l-1.8,4.1h1.9l4.9-11.4
		H120.8z M104.6,30.4h1.8v-12h-1.8V30.4z"/>
	<g>
		
			<linearGradient id="SVGID_1_" gradientUnits="userSpaceOnUse" x1="21.7996" y1="-18.9157" x2="5.0172" y2="-35.6981" gradientTransform="matrix(1 0 0 -1 0 -10.2081)">
			<stop  offset="0" style="stop-color:#00A0FF"/>
			<stop  offset="6.574450e-03" style="stop-color:#00A1FF"/>
			<stop  offset="0.2601" style="stop-color:#00BEFF"/>
			<stop  offset="0.5122" style="stop-color:#00D2FF"/>
			<stop  offset="0.7604" style="stop-color:#00DFFF"/>
			<stop  offset="1" style="stop-color:#00E3FF"/>
		</linearGradient>
		<path class="st2" d="M10.4,7.5C10.1,7.8,10,8.3,10,8.9v22.1c0,0.6,0.2,1.1,0.5,1.4l0.1,0.1l12.4-12.4V20v-0.1L10.4,7.5L10.4,7.5z"
			/>
		
			<linearGradient id="SVGID_00000092453805031706780630000014210579376990331313_" gradientUnits="userSpaceOnUse" x1="33.8343" y1="-30.2074" x2="9.6374" y2="-30.2074" gradientTransform="matrix(1 0 0 -1 0 -10.2081)">
			<stop  offset="0" style="stop-color:#FFE000"/>
			<stop  offset="0.4087" style="stop-color:#FFBD00"/>
			<stop  offset="0.7754" style="stop-color:#FFA500"/>
			<stop  offset="1" style="stop-color:#FF9C00"/>
		</linearGradient>
		<path style="fill:url(#SVGID_00000092453805031706780630000014210579376990331313_);" d="M27,24.3l-4.1-4.1V20v-0.1l4.1-4.1
			l0.1,0.1l4.9,2.8c1.4,0.8,1.4,2.1,0,2.9L27,24.3L27,24.3z"/>
		
			<linearGradient id="SVGID_00000169527643027284975110000009777721676336480674_" gradientUnits="userSpaceOnUse" x1="24.8269" y1="-32.5021" x2="2.0686" y2="-55.2603" gradientTransform="matrix(1 0 0 -1 0 -10.2081)">
			<stop  offset="0" style="stop-color:#FF3A44"/>
			<stop  offset="1" style="stop-color:#C31162"/>
		</linearGradient>
		<path style="fill:url(#SVGID_00000169527643027284975110000009777721676336480674_);" d="M27.1,24.2L22.9,20L10.4,32.5
			c0.5,0.5,1.2,0.5,2.1,0.1L27.1,24.2"/>
		
			<linearGradient id="SVGID_00000162338442161903917180000012521756523307468431_" gradientUnits="userSpaceOnUse" x1="7.2972" y1="-10.3822" x2="17.4598" y2="-20.5447" gradientTransform="matrix(1 0 0 -1 0 -10.2081)">
			<stop  offset="0" style="stop-color:#32A071"/>
			<stop  offset="6.850000e-02" style="stop-color:#2DA771"/>
			<stop  offset="0.4762" style="stop-color:#15CF74"/>
			<stop  offset="0.8009" style="stop-color:#06E775"/>
			<stop  offset="1" style="stop-color:#00F076"/>
		</linearGradient>
		<path style="fill:url(#SVGID_00000162338442161903917180000012521756523307468431_);" d="M27.1,15.8L12.5,7.5
			C11.7,7,10.9,7,10.4,7.5L22.9,20L27.1,15.8z"/>
		<g>
			<path class="st6" d="M27,24.1l-14.5,8.2c-0.8,0.5-1.5,0.4-2,0l0,0l-0.1,0.1l0,0l0.1,0.1l0,0c0.5,0.4,1.2,0.5,2,0L27,24.1L27,24.1
				z"/>
			<path class="st7" d="M10.4,32.3C10.1,32,10,31.5,10,30.9v0.1c0,0.6,0.2,1.1,0.5,1.4V32.3L10.4,32.3z"/>
		</g>
		<path class="st7" d="M32,21.3l-5,2.8l0.1,0.1l4.9-2.8c0.7-0.4,1-0.9,1-1.4l0,0C33,20.5,32.6,20.9,32,21.3z"/>
		<path class="st8" d="M12.5,7.6L32,18.7c0.6,0.4,1,0.8,1,1.3l0,0c0-0.5-0.3-1-1-1.4L12.5,7.5C11.1,6.7,10,7.3,10,8.9v0.1
			C10,7.5,11.1,6.8,12.5,7.6z"/>
	</g>
	<g>
		<path class="st9" d="M41.7,8.4c0.5-0.1,1.1-0.1,1.7-0.1c1.2,0,2,0.3,2.5,0.8c0.6,0.5,0.9,1.2,0.9,2.2c0,1-0.3,1.9-0.9,2.4
			c-0.6,0.6-1.6,0.9-2.8,0.9c-0.6,0-1.1,0-1.5-0.1V8.4z M42.6,14c0.2,0,0.5,0,0.8,0c1.7,0,2.7-1,2.7-2.7c0-1.5-0.8-2.4-2.5-2.4
			c-0.4,0-0.7,0-0.9,0.1V14z"/>
		<path class="st9" d="M48.9,8.8c0,0.3-0.2,0.5-0.5,0.5c-0.3,0-0.5-0.2-0.5-0.5c0-0.3,0.2-0.5,0.5-0.5C48.7,8.3,48.9,8.5,48.9,8.8z
			 M48,14.6v-4.5h0.8v4.5H48z"/>
		<path class="st9" d="M50,13.8c0.2,0.2,0.7,0.3,1.1,0.3c0.6,0,0.9-0.3,0.9-0.7c0-0.4-0.2-0.6-0.8-0.8c-0.8-0.3-1.2-0.7-1.2-1.3
			c0-0.7,0.6-1.3,1.6-1.3c0.5,0,0.9,0.1,1.1,0.3l-0.2,0.6c-0.2-0.1-0.5-0.3-0.9-0.3c-0.5,0-0.8,0.3-0.8,0.6c0,0.4,0.3,0.5,0.9,0.8
			c0.8,0.3,1.2,0.7,1.2,1.4c0,0.8-0.6,1.3-1.7,1.3c-0.5,0-0.9-0.1-1.3-0.3L50,13.8z"/>
		<path class="st9" d="M53.8,11.6c0-0.6,0-1,0-1.5h0.7l0,0.8h0c0.3-0.5,0.9-0.9,1.6-0.9c1.1,0,1.9,0.9,1.9,2.3c0,1.6-1,2.4-2,2.4
			c-0.6,0-1.1-0.3-1.4-0.7h0v2.4h-0.8V11.6z M54.6,12.8c0,0.1,0,0.2,0,0.3c0.1,0.6,0.6,1,1.2,1c0.9,0,1.4-0.7,1.4-1.7
			c0-0.9-0.5-1.7-1.3-1.7c-0.6,0-1.1,0.4-1.2,1c0,0.1-0.1,0.2-0.1,0.3V12.8z"/>
		<path class="st9" d="M63.3,12.3c0,1.7-1.2,2.4-2.2,2.4c-1.2,0-2.2-0.9-2.2-2.3c0-1.5,1-2.4,2.2-2.4C62.4,10,63.3,10.9,63.3,12.3z
			 M59.7,12.4c0,1,0.6,1.7,1.4,1.7c0.8,0,1.4-0.7,1.4-1.7c0-0.8-0.4-1.7-1.3-1.7C60.1,10.6,59.7,11.5,59.7,12.4z"/>
		<path class="st9" d="M64.4,11.3c0-0.5,0-0.8,0-1.2H65l0,0.7h0c0.2-0.4,0.7-0.8,1.5-0.8c0.6,0,1.6,0.4,1.6,1.9v2.7h-0.8V12
			c0-0.7-0.3-1.3-1-1.3c-0.5,0-1,0.4-1.1,0.8c0,0.1-0.1,0.2-0.1,0.4v2.7h-0.8V11.3z"/>
		<path class="st9" d="M70.4,8.8c0,0.3-0.2,0.5-0.5,0.5c-0.3,0-0.5-0.2-0.5-0.5c0-0.3,0.2-0.5,0.5-0.5C70.2,8.3,70.4,8.5,70.4,8.8z
			 M69.5,14.6v-4.5h0.8v4.5H69.5z"/>
		<path class="st9" d="M71.7,14.6c0-0.3,0-0.8,0-1.2V8h0.8v2.8h0c0.3-0.5,0.8-0.8,1.5-0.8c1.1,0,1.9,0.9,1.9,2.3c0,1.6-1,2.4-2,2.4
			c-0.7,0-1.2-0.3-1.5-0.8h0l0,0.7H71.7z M72.5,12.8c0,0.1,0,0.2,0,0.3c0.2,0.6,0.6,1,1.2,1c0.9,0,1.4-0.7,1.4-1.7
			c0-0.9-0.5-1.7-1.3-1.7c-0.6,0-1.1,0.4-1.2,1c0,0.1,0,0.2,0,0.3V12.8z"/>
		<path class="st9" d="M77.1,8h0.8v6.6h-0.8V8z"/>
		<path class="st9" d="M79.8,12.5c0,1.1,0.7,1.6,1.5,1.6c0.6,0,0.9-0.1,1.2-0.2l0.1,0.6c-0.3,0.1-0.8,0.3-1.5,0.3
			c-1.4,0-2.2-0.9-2.2-2.3c0-1.4,0.8-2.4,2.1-2.4c1.5,0,1.9,1.3,1.9,2.1c0,0.2,0,0.3,0,0.4H79.8z M82.2,11.9c0-0.5-0.2-1.3-1.1-1.3
			c-0.8,0-1.2,0.8-1.3,1.3H82.2z"/>
		<path class="st9" d="M86.4,12.5c0,1.1,0.7,1.6,1.5,1.6c0.6,0,0.9-0.1,1.2-0.2l0.1,0.6c-0.3,0.1-0.8,0.3-1.5,0.3
			c-1.4,0-2.2-0.9-2.2-2.3c0-1.4,0.8-2.4,2.1-2.4c1.5,0,1.9,1.3,1.9,2.1c0,0.2,0,0.3,0,0.4H86.4z M88.8,11.9c0-0.5-0.2-1.3-1.1-1.3
			c-0.8,0-1.2,0.8-1.3,1.3H88.8z"/>
		<path class="st9" d="M90.6,11.3c0-0.5,0-0.8,0-1.2h0.7l0,0.7h0c0.2-0.4,0.7-0.8,1.5-0.8c0.6,0,1.6,0.4,1.6,1.9v2.7h-0.8V12
			c0-0.7-0.3-1.3-1-1.3c-0.5,0-1,0.4-1.1,0.8c0,0.1-0.1,0.2-0.1,0.4v2.7h-0.8V11.3z"/>
	</g>
</g>
</svg>
