<?xml version="1.0" encoding="utf-8"?>
<!-- Generator: Adobe Illustrator 25.4.0, SVG Export Plug-In . SVG Version: 6.00 Build 0)  -->
<svg version="1.1" id="Layer_1" xmlns="http://www.w3.org/2000/svg" xmlns:xlink="http://www.w3.org/1999/xlink" x="0px" y="0px"
	 viewBox="0 0 726 148.46" style="enable-background:new 0 0 726 148.46;" xml:space="preserve">
<style type="text/css">
	.st0{fill:#FFFFFF;}
</style>
<g>
	<g>
		<g>
			<path class="st0" d="M53.88,20.39H34.14l-1.26,21.62H17.95v17.33h14.9l0.18,58.79c0,14.53,5.77,21.9,17.15,21.9h23.36V120.9H57
				c-2.25,0-2.95-0.53-2.95-3.85V59.33h19.49V42.01H53.88V20.39z"/>
		</g>
		<path class="st0" d="M129.92,39.3c-13.15,0-25.35,5.24-34.34,14.74c-9.1,9.6-14.1,22.77-14.1,37.06
			c0,14.78,4.68,27.51,13.53,36.81c9.1,9.57,21.88,14.63,36.94,14.63c7.91,0,15.79-1.72,22.79-4.96
			c7.29-3.39,13.46-8.25,18.32-14.45l0.45-0.57l-12.19-12.34l-0.6,0.7c-6.63,7.71-16.37,12.14-26.74,12.14
			c-17.86,0-27.72-7.59-30.09-23.2h70.8l0.02-0.81c0.18-6.86,0.18-9.36,0.18-12.81c0-12.58-4.21-24.23-11.86-32.79
			C154.75,44.2,143.3,39.3,129.92,39.3 M153.85,83.07h-50.17c2.18-15.61,10.89-23.2,26.61-23.2
			C143.76,59.87,153.13,69.16,153.85,83.07"/>
		<path class="st0" d="M284.09,39.3c-13.15,0-25.35,5.24-34.35,14.74c-9.09,9.6-14.1,22.77-14.1,37.06
			c0,14.78,4.68,27.51,13.53,36.81c9.1,9.57,21.88,14.63,36.94,14.63c7.91,0,15.79-1.72,22.79-4.96
			c7.29-3.39,13.46-8.25,18.32-14.45l0.44-0.57l-12.19-12.34l-0.61,0.7c-6.62,7.71-16.37,12.14-26.73,12.14
			c-17.86,0-27.72-7.59-30.09-23.2h70.8l0.02-0.81c0.18-6.86,0.18-9.36,0.18-12.81c0-12.58-4.21-24.23-11.86-32.79
			C308.93,44.2,297.48,39.3,284.09,39.3 M308.03,83.07h-50.18c2.18-15.61,10.89-23.2,26.61-23.2
			C297.93,59.87,307.31,69.16,308.03,83.07"/>
		<path class="st0" d="M212.27,120.24c-0.38-0.51-0.56-1.5-0.56-3.19V6.17h-21.21v111.96c0,7.22,1.48,12.73,4.4,16.39
			c2.91,3.65,7.27,5.51,12.93,5.51h20.39V120.9h-13.75C212.96,120.9,212.51,120.57,212.27,120.24"/>
		<path class="st0" d="M700.46,49.87c-5.7-6.91-14.14-10.57-24.44-10.57c-8.05,0-14.99,2.3-20.64,6.85
			c-4.81,3.87-8.83,9.51-11.94,16.75h-0.87c-4.11-15.23-14.64-23.6-29.71-23.6c-14.55,0-25.72,7.55-31.51,21.26h-0.74l-1.44-18.55
			h-18.1v98.02h21.21V85.34c0-4.68,1.36-11.78,5.18-17.65c3.01-4.64,8.71-10.16,18.75-10.16c12.07,0,18.19,7.96,18.19,23.67v58.82
			h21.21V85.34c0-6.24,2.04-12.96,5.46-17.97c3.06-4.49,8.78-9.84,18.65-9.84c5.8,0,10.25,1.86,13.22,5.53
			c3.18,3.92,4.8,10.03,4.8,18.14v58.82h21.21V78.5C708.97,66.53,706.03,56.64,700.46,49.87"/>
		<g>
			<path class="st0" d="M418.23,107.77c-6.24,9.6-16.21,15.11-27.34,15.11c-7.78,0-14.8-3.14-19.78-8.85
				c-5.02-5.76-7.78-13.89-7.78-22.92c0-9.42,2.8-17.36,8.1-22.96c4.71-4.98,11.05-7.73,17.83-7.73h0.24l0.38,0
				c3.4,0.1,19.65,1.4,26.35,17l17.45-7.75c0,0-8.13-30.36-45.16-30.36c-12.98,0-24.87,5.26-33.5,14.8
				c-8.65,9.57-13.41,22.84-13.41,37.36c0,29.6,19.88,51.08,47.27,51.08c9.42,0,17.96-2.08,25.36-6.16
				c7.73-4.27,14.02-10.65,18.72-18.94l0.38-0.67l-14.64-9.72L418.23,107.77z"/>
		</g>
		<path class="st0" d="M495.28,59.75c11.83,0,22.14,6.67,27.38,16.47h21.91c-6.32-21.32-26.03-36.91-49.3-36.91
			c-23.27,0-42.97,15.59-49.3,36.91h21.92C473.14,66.42,483.46,59.75,495.28,59.75"/>
		<path class="st0" d="M526.35,90.93c0,17.2-13.94,31.18-31.06,31.18s-31.06-13.98-31.06-31.18c0-1.57,0.12-3.11,0.34-4.62h-20.5
			c-0.14,1.52-0.21,3.06-0.21,4.62c0,28.46,23.07,51.63,51.43,51.63s51.43-23.16,51.43-51.63c0-1.56-0.07-3.1-0.21-4.62h-20.5
			C526.23,87.81,526.35,89.36,526.35,90.93"/>
	</g>
</g>
</svg>
